<?xml version="1.0" encoding="UTF-8"?>
<svg width="600" height="800" viewBox="0 0 600 800" xmlns="http://www.w3.org/2000/svg">
  <rect width="100%" height="100%" fill="#F5F3EE"/>
  <rect x="105.72453908666262" y="351.1203608412809" width="161.13274378008023" height="299.530420202066" fill="#FF69B4" opacity="0.833087193015217" transform="rotate(81.88701046670135 186.29091097670272 500.8855709423139)"/>
  <circle cx="83.45280298465406" cy="250.05972330270092" r="191.2424511588308" fill="#32CD32" opacity="0.873153602831152"/>
  <ellipse cx="579.5271112969427" cy="428.589882579318" rx="225.55207301088262" ry="152.59275238616016" fill="#4169E1" opacity="0.7651302600979438" transform="rotate(211.66504205049685 579.5271112969427 428.589882579318)"/>
  <rect x="314.2770343598994" y="461.34007408045676" width="283.68198401864146" height="110.91891615158032" fill="#FF69B4" opacity="0.8755096267025343" transform="rotate(204.9748856878588 456.11802636922016 516.7995321562469)"/>
  <rect x="350.4777527227529" y="466.2110761676004" width="222.81307249217977" height="363.36728743148444" fill="#32CD32" opacity="0.9051740340628125" transform="rotate(262.0268095156726 461.8842889688428 647.8947198833426)"/>
  <ellipse cx="210.48130786609195" cy="312.5355244361047" rx="236.60120545742936" ry="145.3452334569847" fill="#4169E1" opacity="0.645194686580679" transform="rotate(303.4127395525617 210.48130786609195 312.5355244361047)"/>
  <ellipse cx="117.18748297326704" cy="521.9961287154898" rx="76.19745056080372" ry="165.1773950014477" fill="#FF69B4" opacity="0.7069196659415025" transform="rotate(105.69744483009256 117.18748297326704 521.9961287154898)"/>
  <circle cx="543.8640940366536" cy="253.39646727564872" r="63.17807641826174" fill="#32CD32" opacity="0.9953842232581156"/>
  <ellipse cx="5.432841213109985" cy="300.5408122350698" rx="72.08718044878884" ry="50.21167957917436" fill="#4169E1" opacity="0.6312190916550029" transform="rotate(18.708432236858602 5.432841213109985 300.5408122350698)"/>
  <text x="300" y="750" font-size="120" font-weight="bold" fill="#2D3E50" opacity="0.1" text-anchor="middle" font-family="sans-serif">I</text>
</svg>