<?xml version="1.0" encoding="UTF-8"?>
<svg width="600" height="800" viewBox="0 0 600 800" xmlns="http://www.w3.org/2000/svg">
  <rect width="100%" height="100%" fill="#F5F3EE"/>
  <rect x="181.35473960537664" y="465.3690761318891" width="353.0070205817141" height="173.9649349916058" fill="#FF69B4" opacity="0.7373914287813004" transform="rotate(198.26126821858998 357.8582498962337 552.351543627692)"/>
  <rect x="535.2550174800756" y="47.09038801640028" width="383.7714230651491" height="246.23705772625593" fill="#00FA9A" opacity="0.6123250342925147" transform="rotate(200.02073778668293 727.1407290126501 170.20891687952826)"/>
  <ellipse cx="342.99947105109925" cy="23.83645612159553" rx="127.60093125255307" ry="69.98792862341041" fill="#4B0082" opacity="0.7774940258690246" transform="rotate(68.37806040989904 342.99947105109925 23.83645612159553)"/>
  <rect x="414.3646408110654" y="733.4654653208925" width="162.94291388963416" height="369.1987358086476" fill="#FF69B4" opacity="0.8713963279005723" transform="rotate(294.1429712341093 495.83609775588246 918.0648332252163)"/>
  <ellipse cx="232.14838024909514" cy="258.50418777623645" rx="220.93412685200573" ry="174.70553144116576" fill="#00FA9A" opacity="0.6327719748755108" transform="rotate(240.06040779753616 232.14838024909514 258.50418777623645)"/>
  <rect x="286.2619083334572" y="570.2869130746999" width="326.7881770401609" height="101.7811463904217" fill="#4B0082" opacity="0.8176128742165025" transform="rotate(341.5590705334651 449.65599685353766 621.1774862699108)"/>
  <ellipse cx="348.15426117611213" cy="45.15117745134791" rx="136.36700999541483" ry="126.29377854526547" fill="#FF69B4" opacity="0.6898331064918652" transform="rotate(85.77357684293986 348.15426117611213 45.15117745134791)"/>
  <ellipse cx="262.5504356174011" cy="785.1738191637066" rx="154.5930160812499" ry="178.74455101965432" fill="#00FA9A" opacity="0.9602005354812937" transform="rotate(242.36816393348317 262.5504356174011 785.1738191637066)"/>
  <text x="300" y="750" font-size="120" font-weight="bold" fill="#2D3E50" opacity="0.1" text-anchor="middle" font-family="sans-serif">N</text>
</svg>